#!OML:ASF F:\VICON\USERDATA\INSTALL\rory3\rory3.ASF
:FULLY-SPECIFIED
:DEGREES
10
root 0.9419579999999989 17.9351 -2.4449399999999795 -3.5747099999999996 0.40036399999999706 1.286780000000007
lfemur 1.5643300000000107 -3.0745 -26.64809999999999
ltibia 24.84060000000002
lfoot -19.204099999999976 0.24789699999999915
ltoes -3.54477
rfemur -31.385499999999972 -0.8041560000000043 20.348100000000002
rtibia 46.13799999999999
rfoot -6.109999999999998 -9.739479999999995
rtoes -4.820899999999995
lowerback 1.0 -0.2635310000000008 -3.6176099999999938
upperback 0.7175530000000001 -0.7600380000000024 0.737926999999998
thorax -5.42469 -0.27840399999999893 2.9338800000000007
lowerneck -15.7215 -2.96008 -1.448660000000001
upperneck 23.5466 -3.71195 -0.29219900000000026
head 10.1225 -1.87951 -0.3519519999999996
lclavicle -2.77802e-14 -1.3914899999999978e-14
lhumerus -24.850799999999992 -2.2675900000000073 81.2265
lradius 27.558300000000006
lwrist 5.838189999999997
lhand -26.631 27.578500000000005
lfingers 7.12502
lthumb -0.06373420000000019 57.55819999999999
rclavicle -2.77802e-14 -1.3914899999999978e-14
rhumerus -33.156000000000006 -25.2713 -75.6014
rradius 24.3939
rwrist 5.271340000000001
rhand -19.650899999999996 1.0
rfingers 7.12502
rthumb 6.676819999999999 -9.526989999999998
11
root 0.9103380000000005 17.9227 -1.7638900000000248 -3.0908699999999993 0.27468100000000173 1.71477000000001
lfemur 5.169199999999982 -2.8377399999999997 -27.107699999999994
ltibia 21.52229999999998
lfoot -18.835899999999974 0.4117499999999974
ltoes 1.198029999999998
rfemur -30.479299999999995 2.570890000000002 18.702099999999994
rtibia 33.397000000000006
rfoot -7.45439 -12.21950000000001
rtoes 4.941269999999998
lowerback 1.0 -0.34735400000000055 -4.251729999999997
upperback 0.6026130000000003 -0.9241860000000024 0.8107069999999985
thorax -5.2132700000000005 -0.34661899999999907 3.38532
lowerneck -15.8604 -2.83282 -1.6132699999999995
upperneck 23.9017 -3.51364 -0.20324399999999945
head 10.2817 -1.79153 -0.27304099999999987
lclavicle -2.768079999999997e-14 1.1927100000000055e-15
lhumerus -23.413299999999985 -2.4509400000000117 80.8264
lradius 28.619999999999994
lwrist 7.128069999999994
lhand -29.153399999999998 24.5268
lfingers 7.12502
lthumb -2.4998900000000006 54.4919
rclavicle -2.768079999999997e-14 1.1927100000000055e-15
rhumerus -34.013999999999996 -25.944099999999995 -74.7188
rradius 23.5706
rwrist 5.36694
rhand -18.3575 1.0
rfingers 7.12502
rthumb 7.92525 -8.218659999999998
12
root 0.8605799999999997 17.8652 -1.0806600000000213 -2.38269 0.4955300000000029 1.6286200000000086
lfemur 7.877579999999986 -1.927669999999999 -26.68399999999999
ltibia 19.28910000000002
lfoot -19.132800000000017 -0.3988949999999962
ltoes -0.1429579999999948
rfemur -28.912400000000027 6.124949999999997 17.345599999999997
rtibia 20.575400000000023
rfoot -9.63767 -14.929600000000013
rtoes 2.0748000000000015
lowerback 1.0 -0.6357980000000014 -4.3220600000000005
upperback 0.4007780000000004 -1.28053 0.9612630000000011
thorax -4.99788 -0.521350999999999 3.621069999999997
lowerneck -15.7312 -2.87747 -1.6085699999999998
upperneck 23.809 -3.5389 -0.3648379999999995
head 10.2202 -1.82335 -0.3311289999999999
lclavicle 5.242950000000003e-15 5.367190000000004e-15
lhumerus -22.38050000000001 -2.275080000000009 80.2508
lradius 29.793599999999994
lwrist 8.385269999999991
lhand -30.4497 21.332800000000002
lfingers 7.12502
lthumb -3.751729999999995 51.2795
rclavicle 5.242950000000003e-15 5.367190000000004e-15
rhumerus -34.8892 -28.52060000000001 -72.8875
rradius 21.698900000000002
rwrist 7.902260000000003
rhand -18.2418 1.0
rfingers 7.12502
rthumb 8.03694 -7.06821
13
root 0.8022560000000002 17.821 -0.3662270000000092 -2.1150900000000004 1.1502899999999963 1.9013899999999935
lfemur 11.323800000000022 -2.4020699999999997 -26.787699999999987
ltibia 17.2591
lfoot -18.582699999999992 -0.6605419999999973
ltoes -2.8784599999999987
rfemur -27.583799999999982 9.375439999999998 15.517300000000004
rtibia 13.563799999999976
rfoot -12.248499999999996 -15.955899999999993
rtoes -4.647629999999989
lowerback 1.0 -0.9414049999999985 -4.709229999999987
upperback 0.09889239999999994 -1.7276900000000022 1.0150700000000006
thorax -5.18771 -0.7210469999999995 3.958999999999997
lowerneck -15.8337 -2.79195 -1.6434700000000002
upperneck 24.3846 -3.36967 -0.5285919999999988
head 10.4457 -1.76817 -0.3688009999999997
lclavicle -4.857799999999996e-14 7.95139000000001e-15
lhumerus -22.180799999999994 -1.9824599999999952 80.0171
lradius 30.578800000000005
lwrist 8.135199999999994
lhand -30.723899999999997 21.935000000000002
lfingers 7.12502
lthumb -4.016480000000002 51.87689999999999
rclavicle -4.857799999999996e-14 7.95139000000001e-15
rhumerus -36.48370000000001 -29.642999999999986 -71.3262
rradius 20.986199999999997
rwrist 8.407529999999998
rhand -18.4221 1.0
rfingers 7.12502
rthumb 7.86297 -7.125040000000001
14
root 0.7395019999999999 17.7428 0.34647500000000164 -2.1736700000000004 0.8923859999999968 1.917229999999995
lfemur 13.27009999999998 -3.163839999999999 -26.781
ltibia 18.22670000000001
lfoot -18.38660000000002 -1.307239999999999
ltoes -6.534659999999995
rfemur -27.883300000000016 5.220339999999998 18.018400000000014
rtibia 16.38099999999997
rfoot -10.196300000000004 -10.420699999999997
rtoes -3.28216000000001
lowerback 1.0 -0.9552309999999979 -4.793289999999998
upperback 0.20648900000000003 -1.746900000000006 1.0735199999999994
thorax -5.03015 -0.7347229999999991 4.066199999999994
lowerneck -16.0804 -2.72307 -1.57429
upperneck 24.4539 -3.24431 -0.688535
head 10.5136 -1.7231300000000003 -0.42501500000000064
lclavicle 3.304800000000006e-15 -3.9756899999999887e-16
lhumerus -21.61700000000001 -1.0951200000000068 79.8509
lradius 30.818699999999986
lwrist 7.35696000000001
lhand -31.3507 19.586600000000004
lfingers 7.12502
lthumb -4.621769999999998 49.51619999999999
rclavicle 3.304800000000006e-15 -3.9756899999999887e-16
rhumerus -37.33460000000002 -31.633999999999983 -69.7111
rradius 20.2864
rwrist 10.8629
rhand -18.5569 1.0
rfingers 7.12502
rthumb 7.73286 -7.89283
15
root 0.6511640000000003 17.7054 1.12608 -2.136379999999999 1.1959200000000034 1.842260000000008
lfemur 14.65729999999998 -4.391530000000002 -26.647999999999996
ltibia 20.173499999999997
lfoot -16.70769999999998 -2.47996
ltoes -11.83929999999999
rfemur -28.03339999999998 4.048769999999999 19.684399999999997
rtibia 22.492300000000025
rfoot -9.21979 -10.510700000000009
rtoes -1.9272899999999868
lowerback 1.0 -1.258299999999997 -5.153850000000009
upperback 0.14408200000000002 -2.146700000000004 1.3485999999999996
thorax -4.695799999999999 -0.9307869999999974 4.590650000000003
lowerneck -15.7913 -2.5781500000000004 -1.85328
upperneck 24.3604 -2.9615000000000014 -0.7203800000000005
head 10.427600000000002 -1.6246499999999997 -0.3454959999999997
lclavicle -3.5781199999999975e-15 2.3854200000000044e-15
lhumerus -21.886200000000024 0.18722000000000305 79.8344
lradius 30.135999999999996
lwrist 7.474290000000005
lhand -31.396100000000004 15.608100000000013
lfingers 7.12502
lthumb -4.665630000000008 45.536800000000014
rclavicle -3.5781199999999975e-15 2.3854200000000044e-15
rhumerus -38.25930000000002 -33.61820000000002 -67.63530000000002
rradius 18.725000000000012
rwrist 13.07660000000001
rhand -21.525499999999997 1.0
rfingers 7.12502
rthumb 4.866919999999997 -9.107330000000001
16
root 0.5619939999999999 17.8058 1.9527799999999909 -2.2003000000000004 1.4723499999999972 0.9870139999999954
lfemur 15.39589999999997 -6.474950000000005 -26.093399999999995
ltibia 23.496100000000013
lfoot -12.844000000000005 -4.239010000000002
ltoes -16.51079999999998
rfemur -27.407299999999992 5.459060000000002 20.5509
rtibia 24.5293
rfoot -2.8009699999999844 -9.774960000000004
rtoes -7.748999999999976
lowerback 1.0 -1.4869600000000038 -4.368999999999995
upperback -0.27037799999999945 -2.344179999999996 1.58562
thorax -4.86248 -1.0310600000000028 4.411189999999999
lowerneck -15.6175 -2.405039999999999 -1.5340599999999995
upperneck 25.294599999999996 -2.6932600000000013 -1.1619900000000007
head 10.7231 -1.5288000000000004 -0.5283910000000007
lclavicle -1.471630000000001e-14 5.1683999999999946e-15
lhumerus -23.14410000000002 0.6101050000000021 80.0559
lradius 29.71760000000001
lwrist 7.41537000000001
lhand -30.401699999999998 19.81179999999999
lfingers 7.12502
lthumb -3.7053400000000036 49.7594
rclavicle -1.471630000000001e-14 5.1683999999999946e-15
rhumerus -41.18909999999999 -37.167199999999966 -63.50890000000002
rradius 17.381699999999988
rwrist 15.761799999999985
rhand -18.4107 1.0
rfingers 7.12502
rthumb 7.87399 -3.8692399999999973
17
root 0.500091 17.8608 2.756930000000003 -2.0617899999999993 0.7701239999999985 -0.4084929999999998
lfemur 12.350799999999994 -5.972640000000002 -24.1846
ltibia 32.6719
lfoot -6.928159999999998 -7.866050000000007
ltoes -18.55640000000003
rfemur -26.19189999999999 5.261250000000002 22.849600000000002
rtibia 26.61120000000001
rfoot -0.8837220000000192 -5.785819999999999
rtoes -0.5580940000000001
lowerback 1.0 -1.3660300000000045 -2.833519999999997
upperback -0.6296449999999993 -1.9956200000000064 2.0325400000000005
thorax -5.05751 -0.8818380000000006 3.962649999999999
lowerneck -15.9495 -2.336420000000001 -1.57557
upperneck 26.217899999999997 -2.4860900000000017 -1.4840800000000005
head 11.129699999999998 -1.4814300000000005 -0.6259530000000008
lclavicle -3.0943600000000064e-14 -2.425170000000002e-14
lhumerus -24.548600000000015 2.7475300000000002 80.5191
lradius 28.980999999999995
lwrist 6.180480000000001
lhand -30.162500000000005 25.0222
lfingers 7.12502
lthumb -3.474389999999999 54.9736
rclavicle -3.0943600000000064e-14 -2.425170000000002e-14
rhumerus -43.04990000000001 -39.46860000000001 -60.628400000000035
rradius 16.509400000000007
rwrist 18.309799999999996
rhand -17.9228 1.0
rfingers 7.12502
rthumb 8.34488 -3.912910000000002
